<svg width="15" height="26" viewBox="0 0 15 26" fill="none" xmlns="http://www.w3.org/2000/svg">
<path d="M5.14526 6.30273L5.14429 6.28223C5.0832 5.54167 5.18185 4.7959 5.43335 4.09668C5.68484 3.3977 6.08269 2.76036 6.60132 2.22852C7.12009 1.69656 7.74754 1.28264 8.44019 1.01367C9.13285 0.744717 9.87511 0.62745 10.6169 0.669922L10.6316 0.670898H13.8904C13.8916 0.671409 13.8934 0.672892 13.8943 0.673828C13.8951 0.674686 13.8958 0.675688 13.8962 0.676758C13.8967 0.67796 13.8972 0.67938 13.8972 0.680664V4.50293C13.8972 4.50425 13.8967 4.50563 13.8962 4.50684C13.8958 4.50791 13.8951 4.5089 13.8943 4.50977C13.8934 4.51069 13.8916 4.51121 13.8904 4.51172C13.8892 4.51219 13.8877 4.5127 13.8865 4.5127H11.7029C10.9108 4.51272 10.2769 4.6625 9.8728 5.12012C9.48205 5.56288 9.42163 6.17266 9.42163 6.75586V9.66016H13.7302C13.7314 9.66016 13.733 9.66071 13.7341 9.66113C13.7353 9.66164 13.7371 9.66216 13.738 9.66309C13.739 9.66401 13.7395 9.66579 13.74 9.66699C13.7404 9.66809 13.741 9.66971 13.741 9.6709V13.7852C13.741 13.7878 13.7399 13.7911 13.738 13.793C13.7362 13.7948 13.7329 13.7959 13.7302 13.7959H9.41968V24.6602C9.41968 24.6614 9.41915 24.6629 9.4187 24.6641C9.4182 24.6653 9.41768 24.667 9.41675 24.668C9.41583 24.6689 9.41403 24.6694 9.41284 24.6699C9.41174 24.6703 9.41011 24.6709 9.40894 24.6709H5.16089C5.15826 24.6709 5.15495 24.6698 5.15308 24.668C5.15122 24.6661 5.15017 24.6628 5.15015 24.6602V13.7891H1.39038L1.38354 13.7861C1.38173 13.7843 1.38064 13.7819 1.38062 13.7793V9.66895C1.38065 9.66772 1.38112 9.66618 1.38159 9.66504C1.38209 9.66397 1.38271 9.66295 1.38354 9.66211C1.38439 9.66127 1.3854 9.66065 1.38647 9.66016C1.38762 9.65968 1.38915 9.65921 1.39038 9.65918H5.14526V6.30273Z" fill="#B0B0BA" stroke="#B0B0BA"/>
</svg>
