<svg width="27" height="27" viewBox="0 0 27 27" fill="none" xmlns="http://www.w3.org/2000/svg">
<path d="M13.38 7.25707C12.1122 7.25707 10.8729 7.63301 9.81879 8.33735C8.76468 9.04169 7.94309 10.0428 7.45793 11.2141C6.97277 12.3853 6.84584 13.6742 7.09317 14.9176C7.3405 16.161 7.95099 17.3032 8.84745 18.1996C9.7439 19.0961 10.8861 19.7066 12.1295 19.9539C13.3729 20.2012 14.6617 20.0743 15.833 19.5891C17.0043 19.104 18.0054 18.2824 18.7097 17.2283C19.4141 16.1742 19.79 14.9348 19.79 13.6671C19.7913 12.8249 19.6264 11.9908 19.3048 11.2125C18.9831 10.4342 18.511 9.72707 17.9155 9.13158C17.32 8.53609 16.6129 8.06399 15.8346 7.74232C15.0563 7.42065 14.2221 7.25575 13.38 7.25707ZM13.38 17.8333C12.5557 17.8333 11.75 17.5889 11.0647 17.131C10.3793 16.673 9.84516 16.0222 9.52973 15.2607C9.2143 14.4991 9.13177 13.6612 9.29258 12.8528C9.45338 12.0444 9.8503 11.3018 10.4331 10.719C11.016 10.1361 11.7585 9.7392 12.567 9.5784C13.3754 9.41759 14.2133 9.50012 14.9748 9.81555C15.7363 10.131 16.3872 10.6651 16.8451 11.3505C17.3031 12.0358 17.5475 12.8416 17.5475 13.6658C17.5455 14.7705 17.1058 15.8294 16.3247 16.6105C15.5435 17.3916 14.4847 17.8313 13.38 17.8333ZM21.5475 6.99457C21.5475 7.29124 21.4595 7.58125 21.2947 7.82793C21.1299 8.0746 20.8956 8.26686 20.6215 8.38039C20.3474 8.49392 20.0458 8.52363 19.7549 8.46575C19.4639 8.40787 19.1966 8.26501 18.9868 8.05523C18.7771 7.84545 18.6342 7.57818 18.5763 7.28721C18.5184 6.99624 18.5481 6.69464 18.6617 6.42055C18.7752 6.14646 18.9675 5.91219 19.2141 5.74737C19.4608 5.58254 19.7508 5.49457 20.0475 5.49457C20.2445 5.49341 20.4398 5.5313 20.622 5.60604C20.8043 5.68077 20.9699 5.79088 21.1094 5.93001C21.2489 6.06913 21.3594 6.2345 21.4346 6.41658C21.5098 6.59866 21.5482 6.79383 21.5475 6.99082V6.99457ZM25.7975 8.51207C25.8386 6.56824 25.113 4.68633 23.7775 3.27332C22.3601 1.94276 20.4787 1.21916 18.535 1.25707C16.4713 1.13957 10.285 1.13957 8.22 1.25707C6.27775 1.21827 4.39743 1.94106 2.98125 3.27082C1.65129 4.68578 0.928798 6.5656 0.96875 8.50707C0.84375 10.5671 0.84375 16.7571 0.96875 18.8183C0.927601 20.7622 1.65324 22.6441 2.98875 24.0571C4.40311 25.3847 6.27919 26.1089 8.21875 26.0758C10.2825 26.1933 16.4688 26.1933 18.5338 26.0758C20.4776 26.117 22.3595 25.3913 23.7725 24.0558C25.1035 22.64 25.8284 20.76 25.7925 18.8171C25.91 16.7571 25.91 10.5733 25.7925 8.50707L25.7975 8.51207ZM23.1263 21.0321C22.9141 21.5695 22.5938 22.0576 22.1853 22.4661C21.7768 22.8747 21.2887 23.1949 20.7512 23.4071C19.105 24.0596 15.2012 23.9071 13.3762 23.9071C11.5512 23.9071 7.6475 24.0521 6.00125 23.4071C5.46385 23.1949 4.97574 22.8747 4.5672 22.4661C4.15867 22.0576 3.8384 21.5695 3.62625 21.0321C2.97375 19.3858 3.12625 15.4821 3.12625 13.6571C3.12625 11.8321 2.98125 7.92832 3.62625 6.28207C3.8384 5.74466 4.15867 5.25656 4.5672 4.84802C4.97574 4.43948 5.46385 4.11922 6.00125 3.90707C7.6475 3.25457 11.5512 3.40707 13.3762 3.40707C15.2012 3.40707 19.105 3.26207 20.7512 3.90707C21.2887 4.11922 21.7768 4.43948 22.1853 4.84802C22.5938 5.25656 22.9141 5.74466 23.1263 6.28207C23.7788 7.92832 23.6263 11.8321 23.6263 13.6571C23.6263 15.4821 23.7788 19.3921 23.1263 21.0321Z" fill="#B0B0BA" stroke="#B0B0BA" stroke-width="0.5"/>
</svg>
