<svg width="28" height="29" viewBox="0 0 28 29" fill="none" xmlns="http://www.w3.org/2000/svg">
<path d="M8.02594 10.4375H3.33594V24.5448H8.02594V10.4375Z" fill="#B0B0BA"/>
<path d="M5.7155 3.63477C4.11091 3.63477 3.0625 4.68969 3.0625 6.07235C3.0625 7.42598 4.07903 8.50999 5.65343 8.50999H5.68373C7.31905 8.50999 8.33695 7.42598 8.33695 6.07235C8.30659 4.68969 7.31916 3.63477 5.7155 3.63477Z" fill="#B0B0BA"/>
<path d="M19.5398 10.1055C17.0521 10.1055 15.9378 11.4736 15.3138 12.4346V10.4372H10.625C10.6872 11.7605 10.625 24.5444 10.625 24.5444H15.3137V16.6659C15.3137 16.2442 15.344 15.8227 15.4683 15.5213C15.8067 14.6791 16.5788 13.8067 17.8742 13.8067C19.5702 13.8067 20.2496 15.1008 20.2496 16.9965V24.5444H24.9386V16.4545C24.9386 12.1212 22.625 10.1055 19.5398 10.1055Z" fill="#B0B0BA"/>
</svg>
