<svg width="30" height="31" viewBox="0 0 30 31" fill="none" xmlns="http://www.w3.org/2000/svg">
<path d="M28.8772 21.916C28.7522 21.916 28.7522 21.916 28.8772 21.916C28.5022 21.666 28.2522 21.666 28.0022 21.541H27.8772C26.6272 21.166 25.5022 20.291 24.6272 19.166C24.1272 18.541 23.7522 17.791 23.5022 17.166C23.3772 16.916 23.5022 16.791 23.3772 16.791C23.3772 16.791 23.3772 16.791 23.5022 16.666C23.7522 16.416 24.1272 16.166 24.5022 16.041C25.1272 15.791 25.7522 15.541 26.3772 15.041C26.5022 14.916 26.6272 14.791 26.7522 14.541C26.8772 14.166 26.8772 13.791 26.7522 13.416C26.2522 13.166 25.8772 12.916 25.7522 12.791C25.3772 12.541 24.7522 12.541 24.2522 12.666C24.1272 12.666 24.0022 12.791 23.8772 12.791C23.7522 12.791 23.6272 12.916 23.5022 12.916H23.3772C23.2522 12.916 23.1272 12.916 23.0022 12.916C23.0022 12.666 23.0022 12.416 23.0022 12.041C23.0022 11.791 23.0022 11.541 23.0022 11.291V11.166C23.0022 10.166 23.0022 9.16602 22.8772 8.29102V8.16602C22.5022 6.41602 21.3772 4.79102 19.7522 3.54102C18.6272 2.79102 17.3772 2.29102 16.0022 2.16602C15.6272 2.16602 15.2522 2.16602 14.8772 2.16602H14.6272C13.2522 2.16602 11.2522 2.41602 9.50216 3.79102C8.37716 4.66602 7.50216 5.79102 7.00216 7.04102C6.75216 8.54102 6.75216 9.91602 6.87716 11.041V11.666C6.87716 12.166 6.87716 12.541 6.87716 12.916C6.75216 12.916 6.50216 12.916 6.37716 12.791C6.25216 12.791 6.12716 12.791 5.87716 12.791C5.75216 12.791 5.62716 12.666 5.62716 12.666H5.50216C5.00216 12.541 4.50216 12.666 4.25216 12.916C4.25216 12.916 4.25216 12.916 4.12716 12.916C3.62716 13.291 3.37716 13.666 3.37716 14.166C3.37716 14.166 3.37716 14.291 3.37716 14.416C3.37716 14.791 3.62716 15.041 3.87716 15.291C4.00216 15.416 4.12716 15.416 4.12716 15.541L4.25216 15.666C4.75216 16.041 5.37716 16.166 5.87716 16.416L6.25216 16.291C6.62716 16.416 6.75216 16.666 6.75216 16.666C6.87716 17.041 6.50216 17.541 6.50216 17.666C5.87716 18.916 5.00216 19.916 3.87716 20.666C3.25216 21.041 2.62716 21.291 2.00216 21.541H1.87716C1.62716 21.541 1.25216 21.666 0.877163 22.166C0.877163 22.166 0.752163 22.291 0.752163 22.416C0.627163 22.916 0.752163 23.291 1.00216 23.541C1.12716 23.791 1.37716 23.916 1.50216 23.916C2.12716 24.291 2.87716 24.416 3.50216 24.666H3.62716C3.62716 24.666 3.62716 24.666 3.75216 24.666L4.12716 24.791C4.25216 24.791 4.50216 24.916 4.62716 24.916C4.62716 25.041 4.75216 25.291 4.75216 25.416C4.75216 25.666 4.87716 25.791 4.87716 26.041C4.75216 26.541 5.00216 26.791 5.37716 26.916C5.75216 27.041 6.00216 26.916 6.12716 26.916C7.12716 26.791 8.12716 26.666 8.87716 26.791C9.50216 26.916 10.1272 27.416 10.8772 27.791C11.1272 27.916 11.3772 28.041 11.6272 28.291C12.3772 28.791 13.1272 29.166 14.2522 29.166C14.5022 29.166 14.6272 29.166 14.8772 29.166C15.3772 29.166 15.8772 29.166 16.3772 29.041C17.0022 29.041 17.6272 28.791 18.1272 28.416C18.5022 28.166 18.8772 27.916 19.2522 27.666C19.8772 27.291 20.3772 26.916 21.0022 26.666C21.1272 26.666 21.3772 26.541 21.7522 26.541H22.0022C22.7522 26.541 23.6272 26.541 24.3772 26.666H24.6272C24.8772 26.666 25.1272 26.541 25.2522 26.291C25.3772 26.166 25.3772 26.041 25.5022 25.916L25.6272 25.541C25.7522 25.291 25.7522 24.916 25.8772 24.916H26.0022H26.1272C26.8772 24.791 27.5022 24.666 28.0022 24.416L28.2522 24.291H28.3772C28.6272 24.166 29.0022 24.041 29.3772 23.541C29.5022 23.291 29.6272 22.916 29.6272 22.666C29.2522 22.416 29.1272 22.166 28.8772 21.916Z" fill="#B0B0BA"/>
</svg>
