<svg width="22" height="26" viewBox="0 0 22 26" fill="none" xmlns="http://www.w3.org/2000/svg">
<g clip-path="url(#clip0_9695_256)">
<path d="M21.8765 10.4155C19.7268 10.4207 17.6298 9.75027 15.8818 8.49902V17.2256C15.8812 18.8418 15.3872 20.4194 14.4659 21.7473C13.5445 23.0752 12.2397 24.0902 10.7259 24.6565C9.21209 25.2228 7.56148 25.3135 5.99477 24.9164C4.42805 24.5193 3.01991 23.6533 1.95863 22.4343C0.897351 21.2153 0.233517 19.7014 0.0558946 18.0949C-0.121728 16.4885 0.195327 14.8661 0.964664 13.4447C1.734 12.0232 2.91895 10.8706 4.36107 10.1408C5.80318 9.41103 7.43373 9.13891 9.03467 9.36084V13.75C8.30208 13.5196 7.5154 13.5265 6.78699 13.7698C6.05857 14.0132 5.42567 14.4804 4.97866 15.1049C4.53165 15.7294 4.2934 16.4792 4.29792 17.2471C4.30244 18.0151 4.54951 18.762 5.00385 19.3812C5.45818 20.0003 6.09655 20.4601 6.82778 20.6949C7.55901 20.9296 8.34571 20.9273 9.07554 20.6882C9.80537 20.4492 10.441 19.9856 10.8917 19.3638C11.3423 18.7419 11.585 17.9936 11.585 17.2256V0.166016H15.8818C15.8789 0.528877 15.9093 0.891244 15.9727 1.24854C16.122 2.04613 16.4324 2.80489 16.885 3.47839C17.3376 4.15188 17.9229 4.72597 18.605 5.16553C19.5754 5.80717 20.7131 6.14917 21.8765 6.14893V10.4155Z" fill="#B0B0BA"/>
</g>
<defs>
<clipPath id="clip0_9695_256">
<rect width="21.875" height="25" fill="white" transform="translate(0 0.166016)"/>
</clipPath>
</defs>
</svg>
