<svg width="30" height="31" viewBox="0 0 30 31" fill="none" xmlns="http://www.w3.org/2000/svg">
<path d="M27.9132 9.15465C27.6032 7.98752 26.6899 7.06824 25.5302 6.75623C23.4284 6.18945 14.9999 6.18945 14.9999 6.18945C14.9999 6.18945 6.57152 6.18945 4.46953 6.75629C3.3099 7.0683 2.3966 7.98752 2.08664 9.15471C1.52344 11.2702 1.52344 15.6843 1.52344 15.6843C1.52344 15.6843 1.52344 20.0984 2.08664 22.2138C2.3966 23.381 3.3099 24.262 4.46953 24.5741C6.57152 25.1408 14.9999 25.1408 14.9999 25.1408C14.9999 25.1408 23.4284 25.1408 25.5302 24.574C26.6899 24.2619 27.6032 23.381 27.9132 22.2138C28.4764 20.0983 28.4764 15.6842 28.4764 15.6842C28.4764 15.6842 28.4764 11.2702 27.9132 9.15465Z" fill="#B0B0BA"/>
<path d="M12.2422 19.6929V11.6777L19.2867 15.6854L12.2422 19.6929Z" fill="#00040D"/>
</svg>
