<svg width="80" height="70" viewBox="0 0 80 70" fill="none" xmlns="http://www.w3.org/2000/svg">
<g clip-path="url(#clip0_6421_2329)">
<g filter="url(#filter0_d_6421_2329)">
<path d="M30.1145 41.7583V45.897C30.1299 47.0317 30.5836 48.1191 31.384 48.9263C32.1851 49.734 33.2708 50.1976 34.4104 50.2134H46.4436C47.5831 50.1976 48.6689 49.734 49.47 48.9263C50.2704 48.1191 50.7241 47.0316 50.7395 45.897V41.7583H72.0442V57.9507C72.0397 59.0448 71.6066 60.0898 70.844 60.8589C70.0804 61.6288 69.0488 62.0599 67.9758 62.063H12.844C12.3216 62.0707 11.8029 61.9706 11.3196 61.7681C10.8362 61.5655 10.398 61.2646 10.0325 60.8833L10.01 60.8599L9.9856 60.8364C9.60767 60.468 9.30741 60.0244 9.10474 59.5327C8.90204 59.0409 8.80109 58.5115 8.80884 57.978L8.80981 57.9644V41.7583H30.1145ZM43.2922 41.7583V42.7368H37.5618V41.7583H43.2922ZM28.9163 17.6001H51.9377V8.91455H28.9163V17.6001ZM27.9778 9.6167L27.9768 9.6001C27.973 9.38368 28.0136 9.16853 28.095 8.96924C28.1763 8.7701 28.2972 8.59146 28.4485 8.44287L28.467 8.42432L28.4846 8.40576C28.6322 8.25276 28.8088 8.13261 29.0022 8.05225C29.1955 7.97198 29.4025 7.93232 29.6106 7.93604H51.2434C51.4512 7.93235 51.6577 7.97216 51.8508 8.05225C52.0441 8.13241 52.2209 8.25211 52.3684 8.40479L52.386 8.42334L52.4045 8.44092C52.5562 8.5896 52.6765 8.76978 52.7581 8.96924C52.8395 9.16867 52.88 9.3835 52.8762 9.6001V17.6001H67.9758L68.176 17.605C69.1764 17.6576 70.128 18.0823 70.844 18.8042C71.5602 19.5265 71.9854 20.4921 72.0383 21.5132L72.0442 21.7183V34.2808H8.80981V21.6987L8.80884 21.6851C8.80109 21.1516 8.90205 20.6222 9.10474 20.1304C9.30741 19.6387 9.60768 19.195 9.9856 18.8267L10.01 18.8032L10.0325 18.7798C10.398 18.3984 10.8361 18.0976 11.3196 17.895C11.8029 17.6925 12.3216 17.5924 12.844 17.6001H27.9778V9.6167Z" stroke="white" stroke-width="3.85333" shape-rendering="crispEdges"/>
</g>
</g>
<defs>
<filter id="filter0_d_6421_2329" x="-2.10903" y="-2.98183" width="85.0712" height="75.9634" filterUnits="userSpaceOnUse" color-interpolation-filters="sRGB">
<feFlood flood-opacity="0" result="BackgroundImageFix"/>
<feColorMatrix in="SourceAlpha" type="matrix" values="0 0 0 0 0 0 0 0 0 0 0 0 0 0 0 0 0 0 127 0" result="hardAlpha"/>
<feOffset/>
<feGaussianBlur stdDeviation="4.49556"/>
<feComposite in2="hardAlpha" operator="out"/>
<feColorMatrix type="matrix" values="0 0 0 0 1 0 0 0 0 1 0 0 0 0 1 0 0 0 0.25 0"/>
<feBlend mode="normal" in2="BackgroundImageFix" result="effect1_dropShadow_6421_2329"/>
<feBlend mode="normal" in="SourceGraphic" in2="effect1_dropShadow_6421_2329" result="shape"/>
</filter>
<clipPath id="clip0_6421_2329">
<rect width="79" height="70" fill="white" transform="translate(0.893555)"/>
</clipPath>
</defs>
</svg>
