<svg width="70" height="70" viewBox="0 0 70 70" fill="none" xmlns="http://www.w3.org/2000/svg">
<g clip-path="url(#clip0_6421_2303)">
<g filter="url(#filter0_d_6421_2303)">
<path d="M64.8737 69.3933C64.8531 69.4384 64.8365 69.4851 64.824 69.5331C64.824 69.5556 64.8421 69.5849 64.8511 69.6097H33.5306C33.5054 69.5855 33.4853 69.5565 33.4717 69.5243C33.4581 69.4921 33.4512 69.4575 33.4515 69.4226C33.8495 68.9717 34.4014 69.0235 34.9172 69.0235C44.4081 69.013 53.8998 69.013 63.3922 69.0235C63.9192 69.0235 64.4553 68.9807 64.8737 69.3933Z" fill="url(#paint0_linear_6421_2303)"/>
</g>
<g filter="url(#filter1_d_6421_2303)">
<path d="M69.5739 64.8927L69.3817 64.9558C69.0907 64.5024 68.9362 63.9754 68.9362 63.4372C68.9362 62.899 69.0907 62.3721 69.3817 61.9187L69.5784 61.9728L69.5739 64.8927Z" fill="url(#paint1_linear_6421_2303)"/>
</g>
<g filter="url(#filter2_d_6421_2303)">
<path d="M52.3224 21.3161C52.932 21.3415 53.5205 21.5457 54.0142 21.9032C54.5078 22.2607 54.8846 22.7555 55.0973 23.3255C55.3099 23.8956 55.3491 24.5155 55.2097 25.1077C55.0704 25.6998 54.7588 26.2377 54.3141 26.6541C53.8693 27.0704 53.3111 27.3466 52.7095 27.448C52.1079 27.5494 51.4897 27.4715 50.9323 27.2241C50.3749 26.9767 49.9032 26.5708 49.5763 26.0573C49.2494 25.5437 49.0819 24.9454 49.0947 24.3374C49.1225 23.5106 49.4777 22.7285 50.0826 22.1623C50.6876 21.596 51.493 21.2917 52.3224 21.3161Z" fill="url(#paint2_linear_6421_2303)"/>
</g>
<g filter="url(#filter3_d_6421_2303)">
<path d="M58.3617 23.1582C58.0339 23.1507 57.711 23.0783 57.4115 22.9453C57.1121 22.8122 56.8422 22.6212 56.6174 22.3834C56.3927 22.1455 56.2176 21.8654 56.1023 21.5595C55.987 21.2536 55.9339 20.9279 55.946 20.6014C55.9738 19.9611 56.2477 19.356 56.7109 18.9115C57.1741 18.4669 57.7911 18.2171 58.4341 18.2136C58.7765 18.1916 59.1199 18.2405 59.4425 18.3571C59.7651 18.4737 60.0601 18.6557 60.3087 18.8914C60.5574 19.1272 60.7545 19.4116 60.8876 19.727C61.0207 20.0423 61.0869 20.3817 61.082 20.7237C61.0772 21.0658 61.0014 21.4032 60.8594 21.7146C60.7174 22.0261 60.5124 22.3049 60.2571 22.5335C60.0018 22.7622 59.7019 22.9357 59.376 23.0432C59.0502 23.1507 58.7057 23.1899 58.3639 23.1582H58.3617Z" fill="url(#paint3_linear_6421_2303)"/>
</g>
<g filter="url(#filter4_d_6421_2303)">
<path d="M10.8458 2.20874H39.0108C41.4043 2.20874 43.0387 2.88757 44.0723 3.91089C45.1033 4.93156 45.7833 6.53943 45.7833 8.89526C45.7833 13.1852 45.7694 17.4962 45.7979 21.8064C38.9734 23.1709 34.1182 29.0442 34.0196 36.0496C34.0162 36.2865 34.0113 36.487 34.0069 36.6628C33.8188 36.665 33.6039 36.6667 33.3477 36.6667C30.9141 36.6667 28.5529 36.696 26.1758 36.6492C25.6027 36.6371 24.9297 36.7245 24.2901 37.1189C23.6613 37.5067 23.2901 38.0545 23.0489 38.5144C21.4923 41.4795 19.9275 44.3235 18.337 47.3201L18.336 47.322C18.2638 47.4583 18.1999 47.5617 18.1466 47.6443C18.1159 47.5615 18.081 47.458 18.045 47.3259H18.046C17.2625 44.443 16.4933 41.8364 15.7364 39.0066L15.7354 39.0056C15.6185 38.5696 15.3763 37.829 14.71 37.2791C13.9884 36.6835 13.1537 36.6119 12.5401 36.6501C11.3883 36.7173 10.3102 36.6611 8.95124 36.6609H8.95222C5.50682 36.6461 3.19009 33.6376 3.18171 31.1951L3.18757 30.9607C3.41809 27.0838 3.24324 23.0944 3.24323 19.3953C3.24323 15.7354 3.41821 11.7819 3.18757 7.94019C3.04945 5.57947 5.1944 2.39378 8.79597 2.22241L8.79499 2.22144C9.44658 2.19051 10.0661 2.20874 10.8458 2.20874ZM24.4454 7.04272C23.5844 7.03953 22.6814 7.2106 21.877 7.74585C21.0638 8.28705 20.5542 9.06446 20.2393 9.89917V9.90112C18.1876 15.3603 16.1169 20.7923 14.0548 26.2566C13.6956 27.2049 13.5637 28.2723 13.9044 29.2947C14.2606 30.3636 15.0526 31.1355 16.0479 31.5525C18.2896 32.4917 20.8742 31.6015 21.8458 29.2302L21.8467 29.2283C22.2215 28.3116 22.5796 27.3807 22.9141 26.4343C23.9536 26.4591 24.9929 26.4592 26.0323 26.4343C26.3438 27.3221 26.7219 28.3078 26.9669 29.0164C27.2479 29.8291 27.7292 30.603 28.5118 31.1462C29.2726 31.6744 30.1383 31.8582 30.9805 31.8435V31.8445C32.2949 31.8559 33.6639 31.413 34.5118 30.2468C35.3184 29.1371 35.3484 27.7938 34.9581 26.6003L34.8751 26.364C32.7862 20.828 30.7031 15.4214 28.63 9.90991L28.629 9.90698L28.501 9.59741C28.1824 8.88209 27.7076 8.22542 26.9952 7.74976C26.1911 7.21293 25.2925 7.04593 24.4454 7.04272Z" stroke="white" stroke-width="3.85333" shape-rendering="crispEdges"/>
</g>
<g filter="url(#filter5_d_6421_2303)">
<path d="M57.7202 31.2954C57.7187 31.4327 57.7179 31.5704 57.7182 31.7085C57.6168 31.698 57.517 31.6854 57.4331 31.6792C57.005 31.6474 55.5213 31.5261 54.5864 32.7524C54.2039 33.2534 54.0609 33.793 54.0024 34.1968C53.9447 34.5957 53.9543 34.9794 53.9682 35.2593C54.0039 35.9767 54.045 36.1648 54.0161 36.4038C53.6548 39.3089 54.6582 41.6499 56.0239 43.7466V43.7476C59.7323 49.4352 63.2747 55.216 66.9077 61.0103H66.9087C67.2838 61.6081 67.4158 61.8621 67.4594 62.0688C67.461 62.9378 67.466 63.8056 67.4731 64.6724C67.2195 65.4693 66.8658 66.0531 66.4389 66.479C66.0099 66.9072 65.4331 67.25 64.6313 67.4644L33.6548 67.4927C31.0282 66.9154 29.5985 63.7259 31.2241 61.1226L31.226 61.1196C35.1376 54.8309 39.0776 48.5584 43.0464 42.3042C43.8148 41.0975 44.3095 39.7529 44.2065 38.1235H44.2075C44.1421 37.0425 44.1421 35.9585 44.2075 34.8774V34.8696C44.2309 34.4538 44.2714 33.4484 43.5717 32.6392C42.8059 31.7538 41.7281 31.7199 41.1753 31.7427C40.9109 31.7536 40.6294 31.7854 40.4038 31.813C40.4038 31.7757 40.4022 31.7373 40.4028 31.6978C40.4046 31.5713 40.4089 31.443 40.4145 31.3091C46.1773 31.3064 51.9492 31.3102 57.7202 31.2954ZM50.6303 31.7554C49.6169 31.8131 48.6009 31.8132 47.5874 31.7554L47.5825 31.7544L47.3969 31.7485C46.9083 31.7406 46.0551 31.8142 45.3852 32.5015C44.6539 33.2519 44.6566 34.2201 44.6665 34.6069V34.6079C44.6884 35.5333 44.6885 36.4649 44.686 37.4194C44.6835 38.3667 44.6788 39.3417 44.6938 40.3169V40.3403C44.6983 40.503 44.6526 40.6635 44.562 40.8003L44.5512 40.8179L44.5395 40.8354C42.4351 44.1596 40.342 47.4919 38.2602 50.8325L38.2573 50.8384C38.2635 50.8284 38.2619 50.8318 38.1958 50.9204C38.1474 50.9852 38.0419 51.1246 37.9419 51.2856C37.7183 51.6457 37.4583 52.21 37.4917 52.9526L37.5747 54.7944L39.4174 54.7925L58.9467 54.7817L62.4311 54.7798L60.5766 51.8296C58.2626 48.1497 56.0489 44.5679 53.7817 41.0288L53.7622 40.9995L53.6958 40.8911C53.5729 40.671 53.5044 40.4253 53.4946 40.1743V40.0327L53.4956 40.0181C53.5178 39.0889 53.5146 38.1654 53.5112 37.271C53.5095 36.8196 53.5073 36.3755 53.5083 35.9351L53.5229 34.6216C53.5289 34.3382 53.5641 33.4132 52.9458 32.6548C52.3016 31.8647 51.4108 31.7459 50.8491 31.7485L50.6303 31.7554Z" stroke="white" stroke-width="3.85333" shape-rendering="crispEdges"/>
</g>
<g filter="url(#filter6_d_6421_2303)">
<path d="M23.1168 20.2339L24.4626 16.4663C24.915 17.7199 25.2724 18.721 25.6343 19.7063C25.7813 20.1099 25.6184 20.2429 25.2204 20.2362C24.5621 20.2249 23.9017 20.2339 23.1168 20.2339Z" fill="url(#paint4_linear_6421_2303)"/>
</g>
</g>
<defs>
<filter id="filter0_d_6421_2303" x="24.4603" y="60.0245" width="49.4045" height="18.5762" filterUnits="userSpaceOnUse" color-interpolation-filters="sRGB">
<feFlood flood-opacity="0" result="BackgroundImageFix"/>
<feColorMatrix in="SourceAlpha" type="matrix" values="0 0 0 0 0 0 0 0 0 0 0 0 0 0 0 0 0 0 127 0" result="hardAlpha"/>
<feOffset/>
<feGaussianBlur stdDeviation="4.49556"/>
<feComposite in2="hardAlpha" operator="out"/>
<feColorMatrix type="matrix" values="0 0 0 0 1 0 0 0 0 1 0 0 0 0 1 0 0 0 0.25 0"/>
<feBlend mode="normal" in2="BackgroundImageFix" result="effect1_dropShadow_6421_2303"/>
<feBlend mode="normal" in="SourceGraphic" in2="effect1_dropShadow_6421_2303" result="shape"/>
</filter>
<filter id="filter1_d_6421_2303" x="59.945" y="52.9276" width="18.6245" height="21.0193" filterUnits="userSpaceOnUse" color-interpolation-filters="sRGB">
<feFlood flood-opacity="0" result="BackgroundImageFix"/>
<feColorMatrix in="SourceAlpha" type="matrix" values="0 0 0 0 0 0 0 0 0 0 0 0 0 0 0 0 0 0 127 0" result="hardAlpha"/>
<feOffset/>
<feGaussianBlur stdDeviation="4.49556"/>
<feComposite in2="hardAlpha" operator="out"/>
<feColorMatrix type="matrix" values="0 0 0 0 1 0 0 0 0 1 0 0 0 0 1 0 0 0 0.25 0"/>
<feBlend mode="normal" in2="BackgroundImageFix" result="effect1_dropShadow_6421_2303"/>
<feBlend mode="normal" in="SourceGraphic" in2="effect1_dropShadow_6421_2303" result="shape"/>
</filter>
<filter id="filter2_d_6421_2303" x="40.1029" y="12.3236" width="24.1798" height="24.1587" filterUnits="userSpaceOnUse" color-interpolation-filters="sRGB">
<feFlood flood-opacity="0" result="BackgroundImageFix"/>
<feColorMatrix in="SourceAlpha" type="matrix" values="0 0 0 0 0 0 0 0 0 0 0 0 0 0 0 0 0 0 127 0" result="hardAlpha"/>
<feOffset/>
<feGaussianBlur stdDeviation="4.49556"/>
<feComposite in2="hardAlpha" operator="out"/>
<feColorMatrix type="matrix" values="0 0 0 0 1 0 0 0 0 1 0 0 0 0 1 0 0 0 0.25 0"/>
<feBlend mode="normal" in2="BackgroundImageFix" result="effect1_dropShadow_6421_2303"/>
<feBlend mode="normal" in="SourceGraphic" in2="effect1_dropShadow_6421_2303" result="shape"/>
</filter>
<filter id="filter3_d_6421_2303" x="46.9532" y="9.21739" width="23.1202" height="22.9427" filterUnits="userSpaceOnUse" color-interpolation-filters="sRGB">
<feFlood flood-opacity="0" result="BackgroundImageFix"/>
<feColorMatrix in="SourceAlpha" type="matrix" values="0 0 0 0 0 0 0 0 0 0 0 0 0 0 0 0 0 0 127 0" result="hardAlpha"/>
<feOffset/>
<feGaussianBlur stdDeviation="4.49556"/>
<feComposite in2="hardAlpha" operator="out"/>
<feColorMatrix type="matrix" values="0 0 0 0 1 0 0 0 0 1 0 0 0 0 1 0 0 0 0.25 0"/>
<feBlend mode="normal" in2="BackgroundImageFix" result="effect1_dropShadow_6421_2303"/>
<feBlend mode="normal" in="SourceGraphic" in2="effect1_dropShadow_6421_2303" result="shape"/>
</filter>
<filter id="filter4_d_6421_2303" x="-7.73616" y="-8.71401" width="64.4559" height="67.4004" filterUnits="userSpaceOnUse" color-interpolation-filters="sRGB">
<feFlood flood-opacity="0" result="BackgroundImageFix"/>
<feColorMatrix in="SourceAlpha" type="matrix" values="0 0 0 0 0 0 0 0 0 0 0 0 0 0 0 0 0 0 127 0" result="hardAlpha"/>
<feOffset/>
<feGaussianBlur stdDeviation="4.49556"/>
<feComposite in2="hardAlpha" operator="out"/>
<feColorMatrix type="matrix" values="0 0 0 0 1 0 0 0 0 1 0 0 0 0 1 0 0 0 0.25 0"/>
<feBlend mode="normal" in2="BackgroundImageFix" result="effect1_dropShadow_6421_2303"/>
<feBlend mode="normal" in="SourceGraphic" in2="effect1_dropShadow_6421_2303" result="shape"/>
</filter>
<filter id="filter5_d_6421_2303" x="19.6226" y="20.3766" width="58.7705" height="58.0347" filterUnits="userSpaceOnUse" color-interpolation-filters="sRGB">
<feFlood flood-opacity="0" result="BackgroundImageFix"/>
<feColorMatrix in="SourceAlpha" type="matrix" values="0 0 0 0 0 0 0 0 0 0 0 0 0 0 0 0 0 0 127 0" result="hardAlpha"/>
<feOffset/>
<feGaussianBlur stdDeviation="4.49556"/>
<feComposite in2="hardAlpha" operator="out"/>
<feColorMatrix type="matrix" values="0 0 0 0 1 0 0 0 0 1 0 0 0 0 1 0 0 0 0.25 0"/>
<feBlend mode="normal" in2="BackgroundImageFix" result="effect1_dropShadow_6421_2303"/>
<feBlend mode="normal" in="SourceGraphic" in2="effect1_dropShadow_6421_2303" result="shape"/>
</filter>
<filter id="filter6_d_6421_2303" x="14.1257" y="7.4752" width="20.5531" height="21.7522" filterUnits="userSpaceOnUse" color-interpolation-filters="sRGB">
<feFlood flood-opacity="0" result="BackgroundImageFix"/>
<feColorMatrix in="SourceAlpha" type="matrix" values="0 0 0 0 0 0 0 0 0 0 0 0 0 0 0 0 0 0 127 0" result="hardAlpha"/>
<feOffset/>
<feGaussianBlur stdDeviation="4.49556"/>
<feComposite in2="hardAlpha" operator="out"/>
<feColorMatrix type="matrix" values="0 0 0 0 1 0 0 0 0 1 0 0 0 0 1 0 0 0 0.25 0"/>
<feBlend mode="normal" in2="BackgroundImageFix" result="effect1_dropShadow_6421_2303"/>
<feBlend mode="normal" in="SourceGraphic" in2="effect1_dropShadow_6421_2303" result="shape"/>
</filter>
<linearGradient id="paint0_linear_6421_2303" x1="49.1626" y1="69.0156" x2="49.1626" y2="69.6097" gradientUnits="userSpaceOnUse">
<stop stop-color="white"/>
<stop offset="1" stop-color="#E5E5E5"/>
</linearGradient>
<linearGradient id="paint1_linear_6421_2303" x1="69.2573" y1="61.9187" x2="69.2574" y2="64.9558" gradientUnits="userSpaceOnUse">
<stop stop-color="white"/>
<stop offset="1" stop-color="#E5E5E5"/>
</linearGradient>
<linearGradient id="paint2_linear_6421_2303" x1="52.1928" y1="21.3147" x2="52.1929" y2="27.4912" gradientUnits="userSpaceOnUse">
<stop stop-color="white"/>
<stop offset="1" stop-color="#E5E5E5"/>
</linearGradient>
<linearGradient id="paint3_linear_6421_2303" x1="58.5133" y1="18.2085" x2="58.5133" y2="23.1688" gradientUnits="userSpaceOnUse">
<stop stop-color="white"/>
<stop offset="1" stop-color="#E5E5E5"/>
</linearGradient>
<linearGradient id="paint4_linear_6421_2303" x1="24.4022" y1="16.4663" x2="24.4023" y2="20.2364" gradientUnits="userSpaceOnUse">
<stop stop-color="white"/>
<stop offset="1" stop-color="#E5E5E5"/>
</linearGradient>
<clipPath id="clip0_6421_2303">
<rect width="69" height="70" fill="white" transform="translate(0.893616)"/>
</clipPath>
</defs>
</svg>
