<svg width="204" height="42" viewBox="0 0 204 42" fill="none" xmlns="http://www.w3.org/2000/svg">
<path d="M45.5418 37.8468C45.0515 38.2191 44.4464 38.665 43.7263 39.1843C43.0819 39.6583 42.3958 40.0729 41.6764 40.423C40.7872 40.8259 39.8552 41.1266 38.8981 41.3192C37.8579 41.5211 36.8001 41.6181 35.7406 41.6088C33.2458 41.6828 30.8193 40.7875 28.9705 39.1108C28.0799 38.3073 27.3746 37.3198 26.9036 36.2167C26.4326 35.1135 26.2071 33.9212 26.2427 32.7222C26.1622 30.9277 26.6443 29.1529 27.6216 27.6458C28.6257 26.2685 29.9891 25.1937 31.5627 24.5388C33.5608 23.7009 35.6704 23.159 37.8249 22.9302C40.3191 22.61 42.9036 22.3749 45.5785 22.2247V22.0707C45.6328 21.3971 45.4772 20.7231 45.1333 20.1414C44.7893 19.5596 44.2738 19.0985 43.6574 18.8213C41.8558 18.1293 39.9291 17.8232 38.0019 17.9228C36.3748 17.9418 34.76 18.2076 33.2127 18.711C31.5145 19.2418 30.2919 19.6509 29.5496 19.9359H28.7223V13.0969C29.6829 12.8441 31.2502 12.5453 33.4081 12.2029C35.5571 11.8576 37.7303 11.684 39.9069 11.6836C43.7909 11.3812 47.6795 12.2071 51.1053 14.062C52.2709 14.9134 53.1994 16.0486 53.8027 17.3598C54.406 18.671 54.6641 20.1147 54.5524 21.5537V40.8573H45.5418V37.8468ZM45.5418 33.4346V27.5424C44.3161 27.645 42.9856 27.7845 41.55 27.9606C40.4507 28.07 39.3633 28.2769 38.3006 28.5788C37.505 28.794 36.7844 29.2251 36.2186 29.8244C35.7163 30.4252 35.4587 31.1931 35.497 31.9753C35.485 32.4594 35.536 32.943 35.6487 33.4139C35.7893 33.8346 36.0536 34.203 36.407 34.471C36.809 34.8126 37.279 35.0649 37.7858 35.211C38.6145 35.3995 39.4646 35.4768 40.3137 35.4408C41.2596 35.4314 42.1952 35.2435 43.0714 34.887C43.9697 34.5433 44.8046 34.0525 45.5418 33.4346Z" fill="#BE1622"/>
<path d="M86.7006 40.8487H77.5773V37.9026C76.2434 39.0286 74.7678 39.975 73.1881 40.7177C71.6967 41.3485 70.0891 41.6578 68.4702 41.6255C66.8723 41.6731 65.2864 41.3354 63.8465 40.6411C62.4066 39.9467 61.1549 38.916 60.1972 37.6361C57.9799 34.5018 56.8866 30.7102 57.0948 26.8766C57.0566 24.6968 57.4116 22.5281 58.1427 20.4742C58.7813 18.7116 59.7526 17.0881 61.0038 15.692C62.1607 14.4184 63.5818 13.4129 65.1679 12.7459C66.7102 12.0667 68.3752 11.7101 70.0604 11.698C71.4706 11.6588 72.8781 11.8418 74.2314 12.2403C75.3752 12.6255 76.4922 13.0861 77.575 13.6192V1.5498H86.7006V40.8487ZM77.5819 33.0354V19.1046C76.9355 18.8314 76.259 18.6355 75.5666 18.5209C74.923 18.4077 74.2712 18.3486 73.6178 18.3439C72.6101 18.2711 71.5993 18.4359 70.6669 18.825C69.7345 19.2142 68.9065 19.8169 68.2496 20.5845C66.9638 22.3886 66.333 24.5777 66.4617 26.7893C66.2907 28.9118 66.7941 31.0342 67.9003 32.8538C68.4609 33.515 69.1725 34.0314 69.9749 34.3594C70.7773 34.6874 71.6469 34.8173 72.5101 34.7382C73.4018 34.7284 74.2859 34.5732 75.1276 34.2786C76.0012 33.9907 76.8269 33.574 77.5773 33.0423L77.5819 33.0354Z" fill="#BE1622"/>
<path d="M108.496 37.847C108.009 38.2193 107.403 38.6651 106.678 39.1845C106.035 39.6588 105.351 40.0734 104.633 40.4231C103.743 40.8254 102.811 41.1261 101.854 41.3194C100.814 41.521 99.7565 41.618 98.697 41.6089C96.2027 41.6838 93.7767 40.7883 91.9292 39.1109C91.0386 38.3075 90.3333 37.32 89.8623 36.2168C89.3913 35.1137 89.1658 33.9213 89.2014 32.7224C89.1209 30.9279 89.6029 29.1531 90.5802 27.646C91.5838 26.2691 92.9463 25.1943 94.5191 24.539C96.5183 23.702 98.6285 23.1601 100.784 22.9304C103.275 22.6102 105.859 22.375 108.537 22.2249V22.0709C108.591 21.3975 108.436 20.7239 108.092 20.1423C107.749 19.5606 107.234 19.0993 106.618 18.8215C104.816 18.1292 102.889 17.823 100.961 17.9229C99.3288 17.9455 97.7099 18.2167 96.1599 18.7272C94.4578 19.2589 93.2368 19.6671 92.4968 19.9521H91.6741V13.097C92.6332 12.8427 94.1951 12.5447 96.3598 12.2031C98.5089 11.8579 100.682 11.6842 102.859 11.6837C106.743 11.3809 110.633 12.2069 114.059 14.0622C115.225 14.9135 116.153 16.0487 116.757 17.3599C117.36 18.6711 117.618 20.1148 117.506 21.5538V40.8575H108.496V37.847ZM108.496 33.4348V27.5426C107.27 27.6452 105.94 27.7846 104.506 27.9608C103.407 28.0702 102.32 28.2771 101.257 28.579C100.46 28.7936 99.7376 29.2247 99.1704 29.8245C98.6713 30.427 98.4148 31.194 98.4511 31.9755C98.4396 32.4597 98.4914 32.9433 98.605 33.4141C98.7424 33.8352 99.0054 34.2041 99.3588 34.4712C99.7613 34.8119 100.231 35.0641 100.738 35.2111C101.567 35.3983 102.416 35.4756 103.265 35.441C104.211 35.4321 105.147 35.2441 106.023 34.8871C106.922 34.5437 107.758 34.0528 108.496 33.4348Z" fill="#BE1622"/>
<path d="M141.327 21.1591H140.52C139.912 20.9827 139.284 20.8808 138.652 20.8558C137.785 20.7869 137.082 20.7524 136.51 20.7524C135.363 20.7438 134.218 20.8315 133.086 21.0144C131.996 21.2109 130.925 21.5008 129.885 21.8807V40.8741H120.768V12.4955H129.885V16.6596C131.423 15.239 133.185 14.0827 135.101 13.2378C136.399 12.7107 137.782 12.4241 139.183 12.3921C139.504 12.3921 139.872 12.3921 140.265 12.4174C140.658 12.4426 141.023 12.4587 141.324 12.4932L141.327 21.1591Z" fill="#BE1622"/>
<path d="M160.975 37.8464C160.486 38.2187 159.879 38.6645 159.155 39.1839C158.512 39.6578 157.827 40.0724 157.109 40.4225C156.221 40.8246 155.29 41.1252 154.333 41.3188C153.289 41.5207 152.228 41.6177 151.164 41.6083C148.67 41.6826 146.244 40.7863 144.397 39.1081C143.506 38.3046 142.801 37.3171 142.33 36.2139C141.859 35.1108 141.633 33.9184 141.669 32.7195C141.591 30.9234 142.078 29.1482 143.062 27.6431C144.066 26.2675 145.429 25.1931 147 24.5361C148.999 23.699 151.108 23.1571 153.263 22.9275C155.755 22.6073 158.339 22.3721 161.014 22.222V22.068C161.068 21.3944 160.913 20.7204 160.569 20.1386C160.225 19.5569 159.709 19.0958 159.093 18.8186C157.292 18.1269 155.366 17.8208 153.44 17.92C151.808 17.9409 150.189 18.2098 148.639 18.7175C146.937 19.2491 145.717 19.6574 144.978 19.9423H144.144V13.0964C145.103 12.8421 146.665 12.5441 148.83 12.2025C150.978 11.8574 153.15 11.6837 155.326 11.6831C159.211 11.3817 163.101 12.2093 166.527 14.0662C167.693 14.9168 168.622 16.0519 169.226 17.3633C169.829 18.6747 170.087 20.1187 169.974 21.5579V40.8615H160.973L160.975 37.8464ZM160.975 33.4342V27.542C159.749 27.6446 158.419 27.784 156.983 27.9602C155.884 28.0697 154.796 28.2766 153.734 28.5784C152.937 28.7936 152.216 29.2247 151.649 29.8239C151.148 30.4252 150.891 31.1931 150.93 31.9749C150.917 32.459 150.968 32.9427 151.082 33.4135C151.221 33.8348 151.486 34.2036 151.84 34.4706C152.241 34.8133 152.712 35.0657 153.219 35.2106C154.048 35.3986 154.898 35.4759 155.747 35.4404C156.693 35.4311 157.628 35.2432 158.504 34.8865C159.403 34.5428 160.238 34.0519 160.975 33.4342Z" fill="#BE1622"/>
<path d="M203.129 26.2745C203.299 30.2448 201.981 34.1356 199.434 37.1856C198.31 38.5323 196.898 39.6101 195.303 40.3398C193.708 41.0696 191.97 41.4327 190.216 41.4026C188.811 41.4239 187.409 41.2538 186.05 40.897C184.855 40.561 183.711 40.068 182.646 39.4308L182.265 40.8464H173.532V1.5498H182.649V15.4415C183.967 14.3817 185.402 13.4758 186.925 12.7413C188.505 12.0253 190.224 11.6712 191.958 11.7049C193.549 11.6227 195.136 11.9333 196.579 12.6094C198.022 13.2855 199.276 14.3063 200.231 15.5817C202.328 18.7387 203.345 22.4906 203.129 26.2745ZM193.757 26.4675C193.875 24.4446 193.432 22.4285 192.475 20.642C191.959 19.9247 191.261 19.3576 190.454 18.9986C189.646 18.6396 188.757 18.5017 187.879 18.599C186.984 18.6048 186.095 18.7363 185.236 18.9897C184.325 19.2516 183.452 19.6293 182.637 20.1134V34.3361C183.241 34.557 183.865 34.7171 184.501 34.8141C185.203 34.9044 185.91 34.9466 186.617 34.9405C187.614 35.0183 188.616 34.868 189.546 34.5008C190.476 34.1337 191.311 33.5594 191.986 32.8217C193.295 30.9729 193.921 28.7269 193.757 26.4675Z" fill="#BE1622"/>
<path d="M23.9939 40.7191C22.8441 41.0109 21.6776 41.2327 20.5009 41.3833C19.0023 41.5599 17.4941 41.6413 15.9852 41.6269C12.8353 41.8674 9.69883 41.0135 7.10556 39.2093C6.03651 38.1371 5.22082 36.8393 4.71822 35.411C4.21562 33.9828 4.03885 32.4601 4.20083 30.9547V16.0404H0V9.10947H4.20083V0H14.4524V9.11866H23.9939V16.0496H14.4524V27.3721C14.4524 28.4935 14.4616 29.4702 14.48 30.3021C14.484 31.0706 14.6353 31.8312 14.9258 32.5427C15.1962 33.2141 15.6907 33.7711 16.3253 34.1191C17.2367 34.5616 18.2462 34.7633 19.2576 34.7051C19.963 34.676 20.6621 34.561 21.3397 34.3627C21.9597 34.2204 22.5623 34.0108 23.1367 33.7377H23.9847L23.9939 40.7191Z" fill="#BE1622"/>
</svg>
