<svg width="364" height="44" viewBox="0 0 364 44" fill="none" xmlns="http://www.w3.org/2000/svg">
<path d="M31.6233 43.8937L28.7168 40.2487V37.8104C28.8836 37.855 29.0539 37.8855 29.2258 37.9015C29.9269 38.0395 30.6387 38.1162 31.3531 38.1309C32.3992 38.1908 33.4469 38.0428 34.4355 37.6955C35.4241 37.3481 36.334 36.8083 37.1128 36.1073C37.8957 35.2461 38.4376 34.1937 38.6839 33.0562C37.7511 33.2933 36.7932 33.4178 35.8308 33.427C34.3186 33.4392 32.8255 33.0897 31.4759 32.4075C30.1263 31.7253 28.9594 30.7303 28.0726 29.5055C26.3833 27.4396 25.4726 24.8463 25.4991 22.1778C25.3938 19.3201 26.4189 16.5361 28.3523 14.4291C29.3827 13.3682 30.6253 12.5366 31.9989 11.9886C33.3726 11.4407 34.8464 11.1887 36.3241 11.2492C38.5585 11.1707 40.7581 11.819 42.5928 13.0968C43.6937 13.8407 44.5857 14.8542 45.1836 16.0407C45.7815 17.2272 46.0655 18.5471 46.0084 19.8746V31.3562C46.1044 33.1896 45.7705 35.02 45.0335 36.7015C44.2964 38.3829 43.1766 39.8688 41.7633 41.0406C39.2334 43.0615 36.0627 44.1083 32.8268 43.9911L31.6233 43.8937ZM33.5087 18.4637C32.7777 19.4909 32.4196 20.737 32.4937 21.9956C32.4274 23.4378 32.8517 24.8599 33.6972 26.0302C34.0582 26.5214 34.5322 26.9184 35.0792 27.1875C35.6262 27.4567 36.23 27.59 36.8394 27.5762C37.5443 27.567 38.244 27.4548 38.9164 27.2431V19.9186C38.9295 19.551 38.8662 19.1847 38.7304 18.8429C38.5946 18.501 38.3894 18.1911 38.1277 17.9327C37.8873 17.6915 37.6004 17.5017 37.2844 17.3748C36.9685 17.2478 36.63 17.1864 36.2895 17.1942C35.7592 17.1715 35.231 17.2747 34.7482 17.4954C34.2654 17.716 33.8417 18.0479 33.5118 18.4637H33.5087ZM155.226 41.3045C154.894 40.9758 154.632 40.584 154.454 40.1523C154.275 39.7206 154.185 39.2577 154.189 38.7907C154.181 38.3124 154.269 37.8374 154.447 37.3934C154.625 36.9494 154.89 36.5453 155.226 36.2047C155.56 35.8686 155.957 35.6018 156.394 35.4198C156.831 35.2377 157.3 35.144 157.774 35.144C158.248 35.144 158.717 35.2377 159.154 35.4198C159.592 35.6018 159.989 35.8686 160.323 36.2047C160.665 36.5413 160.936 36.9441 161.118 37.3887C161.3 37.8334 161.39 38.3104 161.381 38.7907C161.375 39.5012 161.159 40.194 160.76 40.7821C160.362 41.3701 159.798 41.8272 159.14 42.0958C158.482 42.3644 157.76 42.4326 157.063 42.2918C156.367 42.151 155.728 41.8075 155.226 41.3045ZM146.861 33.0122H145.428L143.725 30.8881H143.581C143.039 31.5279 142.369 32.0473 141.615 32.4131C140.861 32.7789 140.038 32.983 139.2 33.0122H122.082L119.178 29.4112V27.0671H129.328L122.041 5.656H128.539L135.826 27.0577H137.083C137.176 27.063 137.269 27.0493 137.356 27.0174C137.444 26.9856 137.524 26.9362 137.592 26.8723C137.672 26.7285 137.718 26.5684 137.727 26.4041V0H144.825V25.7662C144.825 26.0459 144.847 26.4701 144.875 27.064H154.465C154.629 27.0662 154.789 27.0155 154.921 26.9194C155 26.8602 155.063 26.7825 155.104 26.6932C155.146 26.6039 155.165 26.5057 155.16 26.4072V11.7959H162.258V27.2965C162.244 28.8184 161.629 30.273 160.547 31.3436C159.466 32.4142 158.005 33.0139 156.483 33.0122H146.861ZM79.6396 33.0122H71.1871L69.4746 30.8881H69.3394C69.0692 31.2023 68.821 31.4568 68.6042 31.6768C67.5768 32.5224 66.2928 32.9944 64.9623 33.0153H50.3887V27.0671H62.8445C62.9317 27.0762 63.0199 27.0652 63.1023 27.035C63.1846 27.0048 63.259 26.9561 63.3196 26.8928C63.3803 26.8294 63.4256 26.7529 63.4522 26.6693C63.4788 26.5857 63.4859 26.4972 63.4729 26.4104V23.4253C63.5041 22.5818 63.368 21.7405 63.0725 20.9499C62.777 20.1592 62.3278 19.435 61.751 18.8188C61.1687 18.2192 60.467 17.7486 59.6914 17.4374C58.9157 17.1261 58.0834 16.9812 57.2482 17.012C56.5105 16.9926 55.773 17.0537 55.0486 17.1942V11.532C56.142 11.316 57.2558 11.2212 58.3699 11.2492C60.055 11.1768 61.7368 11.4548 63.3091 12.0654C64.8813 12.676 66.3098 13.606 67.5044 14.7967C68.5305 15.8694 69.3318 17.1364 69.8611 18.5232C70.3905 19.91 70.6373 21.3887 70.5869 22.8722V25.1378C70.5869 25.9988 70.6089 26.6523 70.6403 27.0797H98.8072C98.8945 27.0888 98.9827 27.0778 99.065 27.0476C99.1474 27.0174 99.2217 26.9687 99.2824 26.9053C99.343 26.8419 99.3884 26.7655 99.4149 26.6819C99.4415 26.5983 99.4486 26.5097 99.4357 26.423V23.3719C99.4607 22.419 99.2302 21.4769 98.7683 20.6431C98.3064 19.8093 97.6298 19.1143 96.8088 18.6302C95.3807 17.7229 93.718 17.2542 92.0263 17.2822C89.9051 17.3458 87.7997 17.6697 85.7576 18.2469V12.5909C88.3401 11.7775 91.0229 11.326 93.7294 11.2492C97.1774 11.1583 100.529 12.3957 103.09 14.7056C104.209 15.6891 105.102 16.9034 105.708 18.2648C106.313 19.6263 106.616 21.1027 106.597 22.5926V27.3059C106.608 28.0486 106.468 28.7857 106.185 29.4724C105.902 30.1591 105.482 30.7808 104.95 31.2997C104.419 31.8509 103.78 32.2872 103.073 32.5818C102.366 32.8763 101.606 33.0228 100.84 33.0122H79.6396ZM0 33.0122V27.0671H12.4432C12.5306 27.0769 12.6191 27.0663 12.7017 27.0363C12.7844 27.0063 12.859 26.9577 12.9198 26.8941C12.9806 26.8306 13.0259 26.7539 13.0523 26.67C13.0786 26.5861 13.0852 26.4973 13.0716 26.4104V23.4253C13.1053 22.5815 12.9704 21.7395 12.6747 20.9486C12.379 20.1576 11.9286 19.4336 11.3497 18.8188C10.7695 18.2192 10.0695 17.7484 9.29534 17.4371C8.52118 17.1258 7.69016 16.981 6.85633 17.012C6.11141 16.9924 5.36655 17.0535 4.63478 17.1942V11.532C5.72814 11.316 6.84197 11.2212 7.95611 11.2492C9.6435 11.1731 11.3282 11.4493 12.903 12.0601C14.4779 12.6709 15.9082 13.6029 17.1031 14.7967C18.1306 15.8688 18.9335 17.1355 19.4644 18.5223C19.9954 19.9091 20.2438 21.3881 20.1951 22.8722V27.2965C20.2129 28.0879 20.0566 28.8735 19.7373 29.5978C19.4181 30.3221 18.9436 30.9675 18.3474 31.4882C17.3001 32.4796 15.9089 33.0259 14.4668 33.0122H0Z" fill="#51CAAD"/>
<path d="M182.454 36.2202C181.464 35.2325 180.709 34.0347 180.245 32.7156C179.781 31.3965 179.619 29.9899 179.772 28.6V14.8197H175.898V8.41775H179.772V0H189.246V8.41775H198.046V14.828H189.246V25.3C189.246 26.3367 189.246 27.225 189.271 28.0032C189.275 28.7112 189.413 29.412 189.678 30.0685C189.932 30.6891 190.39 31.2049 190.976 31.5315C191.815 31.9428 192.746 32.1321 193.679 32.0815C194.331 32.0568 194.978 31.9524 195.604 31.7707C196.174 31.6379 196.727 31.4433 197.254 31.1905H198.046V37.6475C196.987 37.9179 195.913 38.1218 194.829 38.258C193.443 38.4158 192.049 38.4911 190.654 38.4835C190.33 38.5082 190.002 38.5247 189.678 38.5247C187.09 38.5171 184.568 37.7124 182.454 36.2202ZM231.536 34.771C229.484 31.8747 228.474 28.3682 228.673 24.8242C228.637 22.8116 228.966 20.8091 229.646 18.9145C230.236 17.284 231.134 15.7826 232.292 14.4925C233.357 13.3129 234.672 12.3864 236.142 11.781C237.564 11.1444 239.104 10.8128 240.663 10.8075C241.965 10.7712 243.264 10.942 244.513 11.3135C245.564 11.6732 246.594 12.0947 247.596 12.5757V1.43275H256.019V37.7327H247.598V35.0047C246.367 36.0496 245.003 36.928 243.542 37.6172C242.159 38.1896 240.672 38.4704 239.175 38.4422H238.9C237.472 38.4438 236.064 38.1129 234.786 37.4757C233.508 36.8385 232.393 35.9125 231.536 34.771ZM238.974 19.0245C237.783 20.694 237.2 22.7219 237.324 24.7692C237.167 26.7279 237.634 28.6861 238.658 30.3627C239.175 30.9734 239.831 31.4507 240.571 31.7541C241.311 32.0576 242.113 32.1784 242.91 32.1062C243.734 32.0909 244.551 31.9452 245.33 31.6745C246.139 31.4024 246.904 31.0143 247.601 30.5222V17.655C247.003 17.4049 246.377 17.2267 245.737 17.1242C245.143 17.0195 244.541 16.9643 243.938 16.9592C243.796 16.9454 243.654 16.939 243.512 16.94C242.65 16.9386 241.798 17.1243 241.016 17.4841C240.233 17.844 239.534 18.3696 238.974 19.0245ZM309.297 36.1295C308.474 35.3874 307.822 34.4754 307.385 33.4564C306.949 32.4375 306.739 31.336 306.77 30.228C306.7 28.5675 307.152 26.9268 308.063 25.5365C308.989 24.2655 310.248 23.2749 311.701 22.6737C313.543 21.8967 315.488 21.39 317.476 21.1695C319.786 20.8725 322.167 20.6635 324.645 20.5287V20.383C324.695 19.7621 324.552 19.141 324.235 18.6045C323.919 18.068 323.444 17.6423 322.877 17.3855C321.212 16.748 319.432 16.4669 317.652 16.5605C316.147 16.5844 314.654 16.8309 313.222 17.292C311.638 17.7842 310.518 18.1692 309.828 18.425H309.077V12.1C309.96 11.8635 311.404 11.594 313.403 11.275C315.39 10.9592 317.398 10.7983 319.409 10.7937C322.996 10.5219 326.586 11.2855 329.752 12.9937C330.829 13.7802 331.687 14.8284 332.246 16.0391C332.804 17.2498 333.045 18.5831 332.945 19.9127V37.7437H324.615V34.9662C324.164 35.3072 323.603 35.7142 322.935 36.1982C322.338 36.6345 321.706 37.0199 321.045 37.3505C320.223 37.7192 319.363 37.9959 318.48 38.1755C317.515 38.3699 316.532 38.4621 315.548 38.4505C315.452 38.4505 315.347 38.4505 315.248 38.4505C313.045 38.4488 310.92 37.6206 309.297 36.1295ZM320.933 25.828C319.915 25.9314 318.909 26.1228 317.924 26.4C317.187 26.5957 316.52 26.9951 315.999 27.5522C315.536 28.1074 315.299 28.8159 315.334 29.5377C315.321 29.9827 315.366 30.4274 315.468 30.8605C315.597 31.2516 315.841 31.5941 316.17 31.8422C316.541 32.1646 316.981 32.3978 317.457 32.5242C318.22 32.7078 319.005 32.7837 319.789 32.7497C320.665 32.7375 321.532 32.5641 322.346 32.2382C323.169 31.9158 323.935 31.4616 324.612 30.8935V25.4347C323.476 25.5365 322.239 25.663 320.933 25.828ZM260.809 36.1295C259.986 35.3874 259.334 34.4754 258.897 33.4564C258.461 32.4375 258.251 31.336 258.282 30.228C258.214 28.5697 258.661 26.931 259.561 25.5365C260.489 24.2639 261.75 23.2715 263.205 22.6682C265.053 21.896 267.002 21.3931 268.993 21.175C271.284 20.878 273.668 20.669 276.143 20.5177V20.383C276.192 19.7601 276.048 19.1373 275.731 18.5991C275.414 18.0609 274.938 17.6333 274.37 17.3745C272.703 16.7422 270.925 16.4613 269.145 16.5495C267.641 16.5714 266.15 16.8237 264.723 17.2975C263.139 17.7842 262.019 18.1692 261.329 18.425H260.573V12.1C261.456 11.8635 262.905 11.594 264.904 11.275C266.889 10.9596 268.895 10.7987 270.905 10.7937C274.497 10.5158 278.092 11.2797 281.261 12.9937C282.336 13.7809 283.193 14.8296 283.749 16.0404C284.305 17.2513 284.543 18.5842 284.44 19.9127V37.7437H276.113V34.9662C275.662 35.3072 275.096 35.7142 274.427 36.1982C273.833 36.6377 273.201 37.0233 272.538 37.3505C271.718 37.7215 270.858 37.9983 269.975 38.1755C269.013 38.3692 268.033 38.4614 267.052 38.4505C266.956 38.4505 266.851 38.4505 266.752 38.4505C264.551 38.4474 262.43 37.6193 260.809 36.1295ZM272.423 25.828C271.405 25.9323 270.399 26.1237 269.414 26.4C268.678 26.5989 268.012 26.9977 267.489 27.5522C267.025 28.1067 266.785 28.8152 266.818 29.5377C266.809 29.9828 266.857 30.4272 266.958 30.8605C267.086 31.2502 267.329 31.5924 267.654 31.8422C268.024 32.1627 268.461 32.3958 268.933 32.5242C269.699 32.7062 270.486 32.7821 271.273 32.7497C272.15 32.7379 273.017 32.5645 273.831 32.2382C274.656 31.9159 275.423 31.4617 276.102 30.8935V25.4347C274.986 25.5365 273.751 25.663 272.423 25.828ZM202.636 36.1295C201.811 35.3884 201.156 34.4768 200.718 33.4579C200.28 32.4389 200.068 31.3368 200.098 30.228C200.039 28.5688 200.49 26.9314 201.39 25.5365C202.326 24.2676 203.591 23.2779 205.048 22.6737C206.89 21.8975 208.835 21.3927 210.823 21.175C213.118 20.8798 215.501 20.6662 217.973 20.5342V20.383C218.022 19.7615 217.878 19.1399 217.56 18.6034C217.243 18.0668 216.767 17.6414 216.199 17.3855C214.534 16.7473 212.754 16.4662 210.974 16.5605C209.47 16.5842 207.978 16.8307 206.546 17.292C204.968 17.7842 203.843 18.1692 203.153 18.425H202.41V12.1C203.301 11.8745 204.737 11.594 206.736 11.275C208.724 10.9556 210.734 10.791 212.748 10.7827C216.335 10.5025 219.927 11.2665 223.09 12.9827C224.167 13.7703 225.025 14.8197 225.583 16.0314C226.14 17.2432 226.38 18.5772 226.278 19.9072V37.7382H217.945V34.9662C217.505 35.3072 216.933 35.7142 216.265 36.1982C215.67 36.6333 215.04 37.0187 214.381 37.3505C213.556 37.7208 212.691 37.9975 211.804 38.1755C210.844 38.3702 209.866 38.4624 208.887 38.4505C208.788 38.4505 208.68 38.4505 208.587 38.4505C206.383 38.4495 204.259 37.6212 202.636 36.1295ZM214.257 25.828C213.246 25.9338 212.245 26.1252 211.265 26.4C210.531 26.602 209.865 27.0004 209.34 27.5522C208.88 28.1082 208.645 28.8169 208.683 29.5377C208.673 29.9826 208.718 30.4269 208.818 30.8605C208.944 31.2526 209.189 31.5957 209.519 31.8422C209.889 32.1627 210.326 32.3958 210.798 32.5242C211.559 32.7064 212.342 32.7822 213.124 32.7497C214.004 32.7392 214.874 32.5658 215.69 32.2382C216.515 31.9192 217.281 31.4647 217.956 30.8935V25.4347C216.815 25.5365 215.591 25.663 214.257 25.828ZM351.623 38.2552C350.324 38.2759 349.029 38.1205 347.773 37.7932C346.671 37.477 345.615 37.0205 344.629 36.4347L344.277 37.7382H336.223V1.43275H344.646V14.267C345.866 13.2914 347.189 12.4522 348.592 11.7645C350.055 11.1094 351.645 10.7846 353.248 10.813C354.716 10.7384 356.181 11.0268 357.511 11.6527C358.842 12.2787 359.998 13.2228 360.876 14.4017C362.82 17.3106 363.765 20.7729 363.569 24.266C363.725 27.9372 362.505 31.5346 360.148 34.353C359.129 35.5748 357.854 36.5578 356.413 37.2326C354.972 37.9074 353.401 38.2574 351.81 38.258C351.755 38.2607 351.689 38.2607 351.623 38.2552ZM353.273 30.3187C354.484 28.6128 355.067 26.5401 354.923 24.453C355.03 22.583 354.619 20.7198 353.735 19.0685C353.259 18.4065 352.615 17.8831 351.87 17.5521C351.124 17.221 350.305 17.0943 349.494 17.1847C348.667 17.1888 347.845 17.3101 347.052 17.545C346.211 17.7819 345.405 18.1306 344.657 18.5817V31.7212C345.215 31.9212 345.79 32.0685 346.376 32.1612C347.024 32.2401 347.677 32.2787 348.331 32.2767C349.249 32.3463 350.171 32.2062 351.027 31.8669C351.883 31.5277 352.651 30.9983 353.273 30.3187ZM287.462 37.7685V11.55H295.886V15.4C297.307 14.0836 298.94 13.0171 300.717 12.2457C301.913 11.7523 303.189 11.482 304.482 11.4482C304.787 11.4482 305.115 11.4482 305.486 11.473C305.857 11.4977 306.187 11.517 306.459 11.5527V19.547H305.698C305.141 19.3799 304.565 19.2874 303.984 19.272C303.181 19.206 302.527 19.1812 302.01 19.1812C300.949 19.1737 299.889 19.2574 298.842 19.4315C297.832 19.6136 296.839 19.8822 295.875 20.2345V37.7795L287.462 37.7685Z" fill="white"/>
</svg>
