<svg width="39" height="17" viewBox="0 0 39 17" fill="none" xmlns="http://www.w3.org/2000/svg">
<path d="M7.13837 2.18358C6.6815 2.72562 5.95073 3.15207 5.21979 3.09113C5.12852 2.36019 5.48785 1.58061 5.9081 1.10552C6.36489 0.551361 7.16278 0.155424 7.81448 0.125C7.88753 0.880178 7.58905 1.62934 7.13837 2.18358ZM7.80228 3.23105C6.74252 3.1702 5.83505 3.83411 5.33556 3.83411C4.82394 3.83411 4.05647 3.26156 3.21604 3.27978C2.12586 3.29808 1.11483 3.91326 0.56059 4.89378C-0.584422 6.86117 0.262112 9.76637 1.3706 11.3683C1.91264 12.16 2.55824 13.0312 3.41104 13.0006C4.22114 12.97 4.53775 12.4767 5.51225 12.4767C6.49286 12.4767 6.77922 13.0006 7.63185 12.9882C8.51491 12.9699 9.06915 12.1965 9.61128 11.4047C10.2264 10.5032 10.4822 9.63239 10.4944 9.58375C10.4762 9.56519 8.78898 8.91975 8.77076 6.97075C8.75254 5.33845 10.1046 4.56496 10.1655 4.51623C9.40407 3.38334 8.21643 3.26156 7.80228 3.23105ZM13.9173 1.02628V12.8971H15.7628V8.8406H18.3147C20.6474 8.8406 22.2797 7.2388 22.2797 4.92437C22.2797 2.60994 20.6718 1.02628 18.3758 1.02628H13.9173ZM15.7628 2.57943H17.8884C19.4903 2.57943 20.4039 3.43215 20.4039 4.93047C20.4039 6.42871 19.4904 7.29364 17.8824 7.29364H15.7629L15.7628 2.57943ZM25.6419 12.9883C26.7991 12.9883 27.871 12.4038 28.3583 11.4718H28.3949V12.897H30.1002V6.98897C30.1002 5.27751 28.7298 4.16911 26.6225 4.16911C24.6673 4.16911 23.2177 5.28972 23.1629 6.82456H24.8257C24.9657 6.09362 25.6419 5.61252 26.5677 5.61252C27.6944 5.61252 28.3278 6.13625 28.3278 7.10474V7.76254L26.0255 7.90254C23.8878 8.03042 22.7306 8.90738 22.7306 10.4302C22.7366 11.9652 23.9303 12.9883 25.6419 12.9883ZM26.1413 11.5815C25.1606 11.5815 24.5332 11.1065 24.5332 10.3876C24.5332 9.63841 25.1363 9.20611 26.2873 9.13899L28.3338 9.01103V9.68112C28.3339 10.7897 27.3899 11.5815 26.1413 11.5815ZM32.3842 16.125C34.1808 16.125 35.0274 15.4369 35.7644 13.3598L38.9985 4.28479H37.1226L34.9544 11.2951H34.9179L32.7494 4.28479H30.8248L33.9433 12.9274L33.7727 13.4512C33.4925 14.3404 33.0358 14.6877 32.2196 14.6877C32.0735 14.6877 31.7933 14.6695 31.6775 14.6571V16.0825C31.7872 16.1069 32.2441 16.125 32.3842 16.125Z" fill="white"/>
</svg>
