<svg width="18" height="21" viewBox="0 0 18 21" fill="none" xmlns="http://www.w3.org/2000/svg">
<g clip-path="url(#clip0_9695_203)">
<path d="M7.40928 4.05078C7.27029 4.05077 7.13586 4.10037 7.03018 4.19066C6.92451 4.28094 6.85452 4.40598 6.83283 4.54326L5.87475 10.6183L4.99449 16.2004L4.99396 16.2051L4.99502 16.2004L5.87528 10.6183C5.92004 10.3345 6.16431 10.1258 6.45142 10.1258H9.25814C12.0828 10.1258 14.4803 8.06495 14.9181 5.27237C14.9515 5.0602 14.9694 4.85004 14.9734 4.64266V4.64234H14.9731C14.2553 4.26572 13.4123 4.05078 12.4887 4.05078H7.40928Z" fill="#001C64"/>
<path d="M14.9759 4.64062C14.9719 4.84801 14.9539 5.05838 14.9206 5.27055C14.4827 8.06314 12.0853 10.124 9.26059 10.124H6.45386C6.16675 10.124 5.92248 10.3327 5.87772 10.6164L4.99746 16.1986L4.44503 19.7009C4.43439 19.7685 4.43853 19.8377 4.45717 19.9036C4.47581 19.9695 4.5085 20.0305 4.55299 20.0826C4.59749 20.1346 4.65274 20.1764 4.71493 20.2051C4.77713 20.2338 4.84479 20.2486 4.91327 20.2486H7.95981C8.0988 20.2486 8.23323 20.199 8.33891 20.1087C8.44458 20.0185 8.51457 19.8934 8.53626 19.7561L9.33882 14.6664C9.38379 14.3827 9.62817 14.1736 9.91529 14.1736H11.7092C14.5339 14.1736 16.931 12.1129 17.3689 9.32055C17.6797 7.33818 16.6821 5.53481 14.9759 4.64062Z" fill="#0070E0"/>
<path d="M3.95116 0C3.81213 4.33144e-06 3.67765 0.0496505 3.57197 0.139998C3.46628 0.230345 3.39633 0.355458 3.3747 0.492804L0.98414 15.6519C0.973448 15.7196 0.977554 15.7888 0.996169 15.8547C1.01478 15.9206 1.04747 15.9817 1.09197 16.0338C1.13647 16.0859 1.19174 16.1278 1.25396 16.1564C1.31618 16.1851 1.38388 16.2 1.45239 16.2H4.99757L5.87783 10.6178L6.83591 4.5428C6.8576 4.40551 6.92759 4.28047 7.03327 4.19019C7.13894 4.09991 7.27337 4.05031 7.41236 4.05031H12.4915C13.4154 4.05031 14.2583 4.26557 14.9763 4.64166C15.0252 2.0993 12.9274 0 10.0427 0H3.95116Z" fill="#003087"/>
</g>
<defs>
<clipPath id="clip0_9695_203">
<rect width="16.4474" height="20.25" fill="white" transform="translate(0.97821)"/>
</clipPath>
</defs>
</svg>
