<svg width="20" height="14" viewBox="0 0 20 14" fill="none" xmlns="http://www.w3.org/2000/svg">
<path d="M13.5714 14L12.2527 12.9063C12.9853 11.849 13.5348 10.9557 13.9011 10.2266C14.304 9.38802 14.5971 8.78646 14.7802 8.42188C14.2674 8.3125 13.8278 8.14844 13.4615 7.92969C12.8755 7.63802 12.3993 7.20052 12.033 6.61719C11.5934 5.9974 11.3736 5.17708 11.3736 4.15625C11.3736 3.28125 11.6484 2.47917 12.1978 1.75C13.0403 0.583334 14.1758 1.39818e-06 15.6044 1.52307e-06C16.8864 1.63515e-06 17.9487 0.455731 18.7912 1.36719C19.5971 2.27865 20 3.44532 20 4.86719C20 7.89323 18.6264 10.9375 15.8791 14L13.5714 14ZM2.1978 14L0.824173 12.9062C1.5934 11.849 2.16117 10.9557 2.52747 10.2266C2.89377 9.38802 3.1685 8.78646 3.35165 8.42187C1.11721 7.94792 -1.25874e-06 6.58073 -1.06112e-06 4.32031C-9.55943e-07 3.11719 0.402928 2.09635 1.20879 1.25781C2.01465 0.419271 3.02198 4.23083e-07 4.23077 5.28758e-07C5.47619 6.37637e-07 6.52015 0.45573 7.36264 1.36719C8.1685 2.27865 8.57143 3.44531 8.57143 4.86719C8.57143 7.89323 7.21612 10.9375 4.50549 14L2.1978 14Z" fill="white" fill-opacity="0.9"/>
</svg>
