<svg width="12" height="11" viewBox="0 0 12 11" fill="none" xmlns="http://www.w3.org/2000/svg">
<path d="M5.09194 0.968665C5.44936 0.193793 6.55064 0.193793 6.90806 0.968665L7.74051 2.77341C7.88617 3.08922 8.18546 3.30666 8.53082 3.34761L10.5045 3.58162C11.3519 3.68209 11.6922 4.72948 11.0657 5.30885L9.60651 6.65825C9.35118 6.89438 9.23686 7.24621 9.30464 7.58732L9.69198 9.53669C9.85828 10.3737 8.96732 11.021 8.22271 10.6042L6.48844 9.63341C6.18497 9.46354 5.81503 9.46354 5.51156 9.63341L3.77729 10.6042C3.03268 11.021 2.14172 10.3737 2.30802 9.53669L2.69536 7.58732C2.76314 7.24621 2.64882 6.89438 2.39349 6.65825L0.934311 5.30885C0.307811 4.72948 0.648127 3.68209 1.49552 3.58162L3.46918 3.34761C3.81454 3.30666 4.11383 3.08922 4.25949 2.77341L5.09194 0.968665Z" fill="#B0B0BA"/>
</svg>
