<svg width="14" height="14" viewBox="0 0 14 14" fill="none" xmlns="http://www.w3.org/2000/svg">
<g clip-path="url(#clip0_6314_9229)">
<path d="M6.98958 1.16602C5.83586 1.16602 4.70805 1.50813 3.74876 2.14911C2.78947 2.79008 2.0418 3.70113 1.60029 4.76703C1.15878 5.83293 1.04326 7.00582 1.26834 8.13737C1.49342 9.26893 2.04899 10.3083 2.8648 11.1241C3.6806 11.9399 4.72 12.4955 5.85156 12.7206C6.98311 12.9457 8.156 12.8302 9.2219 12.3886C10.2878 11.9471 11.1988 11.1995 11.8398 10.2402C12.4808 9.28089 12.8229 8.15307 12.8229 6.99935C12.8229 5.45225 12.2083 3.96852 11.1144 2.87456C10.0204 1.7806 8.53668 1.16602 6.98958 1.16602Z" fill="#B0B0BA"/>
<path d="M9.19823 8.89022L8.75494 9.44458C8.69577 9.51769 8.61 9.56432 8.51648 9.57424C8.42295 9.58416 8.32931 9.55655 8.25612 9.49748L6.77023 8.39774C6.66642 8.31464 6.58261 8.20927 6.52502 8.08941C6.46743 7.96956 6.43752 7.83829 6.4375 7.70531V4.25533C6.4375 4.1612 6.4749 4.07092 6.54146 4.00435C6.60803 3.93779 6.69831 3.90039 6.79244 3.90039H7.50233C7.59647 3.90039 7.68675 3.93779 7.75331 4.00435C7.81988 4.07092 7.85727 4.1612 7.85727 4.25533V7.44876L9.14374 8.39139C9.21709 8.45034 9.26403 8.53599 9.27424 8.62953C9.28446 8.72306 9.25712 8.81683 9.19823 8.89022Z" fill="#222336"/>
</g>
<defs>
<clipPath id="clip0_6314_9229">
<rect width="14" height="14" fill="white"/>
</clipPath>
</defs>
</svg>
