<svg width="14" height="14" viewBox="0 0 14 14" fill="none" xmlns="http://www.w3.org/2000/svg">
<g clip-path="url(#clip0_6314_9225)">
<path d="M6.5765 9.70725C6.727 9.28288 7.875 7.82075 7.875 5.25C7.875 3.80013 6.69987 2.625 5.25 2.625C3.80013 2.625 2.625 3.80013 2.625 5.25C2.625 7.82075 3.77388 9.28288 3.9235 9.70725C2.58388 9.82975 0 10.6846 0 12.25C0 12.6193 0.294 13.125 0.875 13.125H9.625C10.206 13.125 10.5 12.6193 10.5 12.25C10.5 10.6846 7.91612 9.82975 6.5765 9.70725ZM11.067 7.03412C11.2779 6.39712 12.25 4.61387 12.25 3.5C12.25 2.05013 11.074 0.875 9.625 0.875C8.89 0.875 8.22587 1.17775 7.74988 1.66425C8.88125 2.457 9.625 3.76775 9.625 5.25C9.625 6.58087 9.36512 7.68163 9.06063 8.5295C9.73875 8.79813 10.3968 9.16212 10.9384 9.625H13.125C13.6307 9.625 14 9.22863 14 8.75C14 7.64925 11.8807 7.18462 11.067 7.03412Z" fill="#B0B0BA"/>
</g>
<defs>
<clipPath id="clip0_6314_9225">
<rect width="14" height="14" fill="white"/>
</clipPath>
</defs>
</svg>
